<svg xmlns="http://www.w3.org/2000/svg" viewBox="0 0 40 40"><defs><style>.b{fill:#1967d2;}.b,.c{stroke-width:0px;}.c{fill:#fff;}</style></defs><circle class="b" cx="20" cy="20" r="18"/><path class="c" d="m21.49,13.56h4.36c1.02,0,1.94.16,2.75.47.81.31,1.51.75,2.09,1.32.58.57,1.02,1.25,1.32,2.04s.46,1.66.46,2.61-.15,1.84-.46,2.63-.75,1.47-1.32,2.03c-.58.56-1.27,1-2.09,1.31-.82.31-1.73.47-2.75.47h-4.36v-12.89Zm4.25,10.58c.71,0,1.33-.1,1.87-.3.54-.2.99-.48,1.35-.84.36-.36.63-.79.81-1.3.18-.51.27-1.08.27-1.7s-.09-1.19-.27-1.7c-.18-.51-.45-.94-.81-1.31-.36-.36-.81-.64-1.35-.84-.54-.2-1.16-.3-1.87-.3h-1.82v8.28h1.82Z"/><path class="c" d="m7.26,13.56h2.39l3.94,6.82h.14l3.94-6.82h2.41v12.89h-2.41v-6.35l.14-2.16h-.14l-3.28,5.78h-1.46l-3.29-5.78h-.14l.14,2.16v6.35h-2.39v-12.89Z"/></svg>
